<svg width="945" height="2835" viewBox="0 0 945 2835" fill="none" xmlns="http://www.w3.org/2000/svg">
<mask id="path-1-inside-1_147_30" fill="white">
<path d="M0 0H945V830H0V0Z"/>
</mask>
<path d="M0 0V-110H-128V0H0ZM945 0H1073V-110H945V0ZM945 830V862H1073V830H945ZM0 830H-128V862H0V830ZM0 0V110H945V0V-110H0V0ZM945 0H817V830H945H1073V0H945ZM945 830V798H0V830V862H945V830ZM0 830H128V0H0H-128V830H0Z" fill="white" mask="url(#path-1-inside-1_147_30)"/>
<mask id="path-3-inside-2_147_30" fill="white">
<path d="M0 830H945V1660H0V830Z"/>
</mask>
<path d="M0 830V798H-128V830H0ZM945 830H1073V798H945V830ZM945 1660V1692H1073V1660H945ZM0 1660H-128V1692H0V1660ZM0 830V862H945V830V798H0V830ZM945 830H817V1660H945H1073V830H945ZM945 1660V1628H0V1660V1692H945V1660ZM0 1660H128V830H0H-128V1660H0Z" fill="white" mask="url(#path-3-inside-2_147_30)"/>
<mask id="path-5-inside-3_147_30" fill="white">
<path d="M0 1660H945V2490H0V1660Z"/>
</mask>
<path d="M0 1660V1628H-128V1660H0ZM945 1660H1073V1628H945V1660ZM945 2490V2522H1073V2490H945ZM0 2490H-128V2522H0V2490ZM0 1660V1692H945V1660V1628H0V1660ZM945 1660H817V2490H945H1073V1660H945ZM945 2490V2458H0V2490V2522H945V2490ZM0 2490H128V1660H0H-128V2490H0Z" fill="white" mask="url(#path-5-inside-3_147_30)"/>
<rect y="2490" width="945" height="345" fill="white"/>
</svg>
